<?xml version="1.0" encoding="UTF-8" standalone="no"?>
<!-- Generator: Adobe Illustrator 19.0.0, SVG Export Plug-In . SVG Version: 6.00 Build 0)  -->

<svg
   xmlns:dc="http://purl.org/dc/elements/1.1/"
   xmlns:cc="http://creativecommons.org/ns#"
   xmlns:rdf="http://www.w3.org/1999/02/22-rdf-syntax-ns#"
   xmlns:svg="http://www.w3.org/2000/svg"
   xmlns="http://www.w3.org/2000/svg"
   xmlns:sodipodi="http://sodipodi.sourceforge.net/DTD/sodipodi-0.dtd"
   xmlns:inkscape="http://www.inkscape.org/namespaces/inkscape"
   version="1.1"
   id="Layer_1"
   x="0px"
   y="0px"
   viewBox="0 0 473.93399 473.93399"
   xml:space="preserve"
   sodipodi:docname="compact.svg"
   width="473.93399"
   height="473.93399"
   inkscape:version="0.92.3 (2405546, 2018-03-11)"><metadata
   id="metadata23"><rdf:RDF><cc:Work
       rdf:about=""><dc:format>image/svg+xml</dc:format><dc:type
         rdf:resource="http://purl.org/dc/dcmitype/StillImage" /><dc:title></dc:title></cc:Work></rdf:RDF></metadata><defs
   id="defs21" /><sodipodi:namedview
   pagecolor="#ffffff"
   bordercolor="#666666"
   borderopacity="1"
   objecttolerance="10"
   gridtolerance="10"
   guidetolerance="10"
   inkscape:pageopacity="0"
   inkscape:pageshadow="2"
   inkscape:window-width="1533"
   inkscape:window-height="845"
   id="namedview19"
   showgrid="false"
   fit-margin-top="0"
   fit-margin-left="0"
   fit-margin-right="0"
   fit-margin-bottom="0"
   inkscape:zoom="0.49795858"
   inkscape:cx="236.9675"
   inkscape:cy="236.96649"
   inkscape:window-x="67"
   inkscape:window-y="27"
   inkscape:window-maximized="1"
   inkscape:current-layer="Layer_1" />
<circle
   style="fill:#ffc200"
   cx="236.967"
   cy="236.967"
   r="236.967"
   id="circle2" />
<g
   id="g16">
	<path
   style="fill:#3d4040"
   d="m 368.495,105.133 c -17.414,-17.422 -37.148,11.364 -48.045,22.267 -10.443,10.443 -20.872,20.875 -31.308,31.308 -0.988,-10.911 -2.024,-21.822 -3.626,-32.628 -2.559,-17.164 -23.824,-23.581 -31.667,-8.453 -0.812,1.07 -1.328,2.417 -1.542,3.992 -0.352,1.474 -0.352,2.81 -0.075,4.007 0.284,14.151 0.554,28.307 0.849,42.466 0.269,13.788 -1.579,28.778 3.465,41.732 0.198,0.733 0.46,1.482 0.827,2.234 1.022,2.039 4.378,8.629 0.116,0.105 1.212,2.425 3.435,3.824 5.905,4.34 11.921,4.524 25.156,3.027 37.923,3.285 15.865,0.314 31.719,0.621 47.584,0.947 18.316,0.367 18.971,-23.177 5.583,-31.016 -6.679,-3.936 -17.429,-3.469 -24.857,-4.224 -4.778,-0.498 -9.56,-0.95 -14.339,-1.418 10.368,-10.372 20.741,-20.73 31.109,-31.105 10.895,-10.874 39.464,-30.488 22.098,-47.839 z"
   id="path4"
   inkscape:connector-curvature="0" />
	<path
   style="fill:#3d4040"
   d="m 219.433,124.549 c 0.374,-18.305 -23.173,-18.971 -31.016,-5.579 -3.918,6.687 -3.465,17.426 -4.239,24.864 -0.49,4.763 -0.928,9.545 -1.396,14.324 -10.376,-10.368 -20.733,-20.748 -31.105,-31.109 -10.889,-10.885 -30.496,-39.457 -47.861,-22.08 -17.399,17.396 11.379,37.137 22.275,48.045 10.436,10.425 20.879,20.864 31.323,31.311 -10.911,0.958 -21.837,2.013 -32.64,3.611 -17.16,2.559 -23.562,23.816 -8.449,31.682 1.066,0.782 2.417,1.317 3.989,1.519 1.463,0.363 2.814,0.37 4.034,0.079 14.14,-0.277 28.284,-0.565 42.439,-0.842 13.755,-0.266 28.707,1.564 41.635,-3.442 0.599,-0.146 1.19,-0.367 1.755,-0.662 0.183,-0.075 0.393,-0.12 0.569,-0.224 -0.03,0 -0.06,-0.022 -0.094,-0.022 0.101,-0.064 0.206,-0.109 0.299,-0.176 -0.644,0.872 -0.505,0.962 1.833,-1.373 1.497,-1.497 2.279,-3.173 2.586,-4.868 4.311,-11.794 2.851,-24.868 3.113,-37.478 0.322,-15.853 0.64,-31.703 0.95,-47.58 z"
   id="path6"
   inkscape:connector-curvature="0" />
	<path
   style="fill:#3d4040"
   d="m 105.133,356.106 c 0,0 0,-0.022 -0.015,-0.022 1.437,1.433 2.776,2.776 0.015,0.022 z"
   id="path8"
   inkscape:connector-curvature="0" />
	<path
   style="fill:#3d4040"
   d="m 105.118,356.083 v 0 c -1.5,-1.504 -3.057,-3.06 0,0 z"
   id="path10"
   inkscape:connector-curvature="0" />
	<path
   style="fill:#3d4040"
   d="m 103.64,369.632 c 17.414,17.414 37.148,-11.364 48.052,-22.275 10.443,-10.436 20.872,-20.864 31.308,-31.315 0.98,10.911 2.024,21.83 3.641,32.647 2.544,17.145 23.802,23.562 31.652,8.449 0.812,-1.081 1.325,-2.432 1.534,-4.004 0.367,-1.463 0.367,-2.814 0.075,-4.019 -0.284,-14.14 -0.554,-28.299 -0.849,-42.454 -0.254,-13.519 1.512,-28.187 -3.173,-40.969 -0.292,-1.703 -1.081,-3.39 -2.586,-4.905 -0.06,-0.052 -0.086,-0.086 -0.138,-0.131 -1.482,-1.478 -3.143,-2.264 -4.831,-2.574 -11.824,-4.318 -24.883,-2.859 -37.496,-3.121 -15.85,-0.307 -31.719,-0.629 -47.569,-0.943 -18.335,-0.359 -18.986,23.173 -5.59,31.023 6.687,3.925 17.422,3.465 24.849,4.232 4.778,0.483 9.56,0.928 14.339,1.396 -10.368,10.368 -20.741,20.733 -31.117,31.098 -10.891,10.897 -39.455,30.504 -22.101,47.865 z"
   id="path12"
   inkscape:connector-curvature="0" />
	<path
   style="fill:#3d4040"
   d="m 252.705,350.194 c -0.352,18.32 23.188,18.986 31.031,5.59 3.918,-6.687 3.465,-17.422 4.232,-24.849 0.483,-4.778 0.928,-9.56 1.396,-14.331 10.368,10.376 20.741,20.733 31.109,31.105 10.874,10.889 30.488,39.465 47.861,22.084 17.399,-17.399 -11.379,-37.134 -22.275,-48.037 -10.443,-10.428 -20.887,-20.872 -31.323,-31.315 10.911,-0.965 21.822,-2.017 32.625,-3.618 17.182,-2.559 23.584,-23.816 8.471,-31.674 -1.074,-0.797 -2.417,-1.317 -3.996,-1.527 -1.471,-0.374 -2.829,-0.374 -4.026,-0.075 -14.14,0.262 -28.299,0.546 -42.447,0.834 -13.527,0.269 -28.202,-1.497 -40.991,3.188 -1.695,0.292 -3.39,1.074 -4.891,2.586 -2.331,2.339 -2.253,2.485 -1.373,1.819 -0.052,0.109 -0.101,0.221 -0.168,0.322 -0.007,-0.052 -0.022,-0.075 -0.037,-0.101 -0.079,0.198 -0.138,0.393 -0.221,0.591 -0.284,0.543 -0.498,1.104 -0.651,1.673 -4.64,11.992 -3.121,25.294 -3.375,38.162 -0.307,15.854 -0.629,31.723 -0.951,47.573 z"
   id="path14"
   inkscape:connector-curvature="0" />
</g>
</svg>