<?xml version="1.0" encoding="UTF-8" standalone="no"?>
<svg
   xmlns:dc="http://purl.org/dc/elements/1.1/"
   xmlns:cc="http://creativecommons.org/ns#"
   xmlns:rdf="http://www.w3.org/1999/02/22-rdf-syntax-ns#"
   xmlns:svg="http://www.w3.org/2000/svg"
   xmlns="http://www.w3.org/2000/svg"
   xmlns:sodipodi="http://sodipodi.sourceforge.net/DTD/sodipodi-0.dtd"
   xmlns:inkscape="http://www.inkscape.org/namespaces/inkscape"
   xml:space="preserve"
   style="enable-background:new 0 0 330 330;"
   viewBox="0 0 330 330"
   y="0px"
   x="0px"
   width="330px"
   height="330px"
   id="Capa_1"
   version="1.1"
   sodipodi:docname="copy.svg"
   inkscape:version="0.92.3 (2405546, 2018-03-11)"><sodipodi:namedview
   pagecolor="#ffffff"
   bordercolor="#666666"
   borderopacity="1"
   objecttolerance="10"
   gridtolerance="10"
   guidetolerance="10"
   inkscape:pageopacity="0"
   inkscape:pageshadow="2"
   inkscape:window-width="1533"
   inkscape:window-height="845"
   id="namedview25"
   showgrid="false"
   inkscape:zoom="0.71515152"
   inkscape:cx="404.80932"
   inkscape:cy="165"
   inkscape:window-x="67"
   inkscape:window-y="27"
   inkscape:window-maximized="1"
   inkscape:current-layer="Capa_1" /><metadata
   id="metadata47"><rdf:RDF><cc:Work
       rdf:about=""><dc:format>image/svg+xml</dc:format><dc:type
         rdf:resource="http://purl.org/dc/dcmitype/StillImage" /><dc:title></dc:title></cc:Work></rdf:RDF></metadata><defs
   id="defs45" />
<g
   id="g10">
	<path
   id="path2"
   d="M35,270h45v45c0,8.284,6.716,15,15,15h200c8.284,0,15-6.716,15-15V75c0-8.284-6.716-15-15-15h-45V15   c0-8.284-6.716-15-15-15H35c-8.284,0-15,6.716-15,15v240C20,263.284,26.716,270,35,270z M280,300H110V90h170V300z M50,30h170v30H95   c-8.284,0-15,6.716-15,15v165H50V30z" />
	<path
   id="path4"
   d="M155,120c-8.284,0-15,6.716-15,15s6.716,15,15,15h80c8.284,0,15-6.716,15-15s-6.716-15-15-15H155z" />
	<path
   id="path6"
   d="M235,180h-80c-8.284,0-15,6.716-15,15s6.716,15,15,15h80c8.284,0,15-6.716,15-15S243.284,180,235,180z" />
	<path
   id="path8"
   d="M235,240h-80c-8.284,0-15,6.716-15,15c0,8.284,6.716,15,15,15h80c8.284,0,15-6.716,15-15C250,246.716,243.284,240,235,240z   " />
</g>
<g
   id="g12">
</g>
<g
   id="g14">
</g>
<g
   id="g16">
</g>
<g
   id="g18">
</g>
<g
   id="g20">
</g>
<g
   id="g22">
</g>
<g
   id="g24">
</g>
<g
   id="g26">
</g>
<g
   id="g28">
</g>
<g
   id="g30">
</g>
<g
   id="g32">
</g>
<g
   id="g34">
</g>
<g
   id="g36">
</g>
<g
   id="g38">
</g>
<g
   id="g40">
</g>
</svg>