<?xml version="1.0" encoding="UTF-8" standalone="no"?>
<!-- Generator: Adobe Illustrator 13.0.0, SVG Export Plug-In . SVG Version: 6.00 Build 14948)  -->

<svg
   xmlns:dc="http://purl.org/dc/elements/1.1/"
   xmlns:cc="http://creativecommons.org/ns#"
   xmlns:rdf="http://www.w3.org/1999/02/22-rdf-syntax-ns#"
   xmlns:svg="http://www.w3.org/2000/svg"
   xmlns="http://www.w3.org/2000/svg"
   xmlns:sodipodi="http://sodipodi.sourceforge.net/DTD/sodipodi-0.dtd"
   xmlns:inkscape="http://www.inkscape.org/namespaces/inkscape"
   version="1.1"
   id="Ebene_1"
   x="0px"
   y="0px"
   width="437.03201"
   height="437.03201"
   viewBox="0 0 437.032 437.03202"
   xml:space="preserve"
   inkscape:version="0.91 r13725"
   sodipodi:docname="delete.svg"><metadata
     id="metadata19"><rdf:RDF><cc:Work
         rdf:about=""><dc:format>image/svg+xml</dc:format><dc:type
           rdf:resource="http://purl.org/dc/dcmitype/StillImage" /><dc:title></dc:title></cc:Work></rdf:RDF></metadata><defs
     id="defs17" /><sodipodi:namedview
     pagecolor="#ffffff"
     bordercolor="#666666"
     borderopacity="1"
     objecttolerance="10"
     gridtolerance="10"
     guidetolerance="10"
     inkscape:pageopacity="0"
     inkscape:pageshadow="2"
     inkscape:window-width="1535"
     inkscape:window-height="876"
     id="namedview15"
     showgrid="false"
     fit-margin-top="0"
     fit-margin-left="0"
     fit-margin-right="0"
     fit-margin-bottom="0"
     inkscape:zoom="0.28032133"
     inkscape:cx="216.39351"
     inkscape:cy="236.6375"
     inkscape:window-x="65"
     inkscape:window-y="24"
     inkscape:window-maximized="1"
     inkscape:current-layer="Ebene_1" /><g
     id="g3"
     transform="translate(-81.244003,-220.55098)"><path
       style="fill:#ffffff"
       d="m 326.039,513.568 -69.557,0 0,-9.441 c 0,-10.531 2.12,-19.876 6.358,-28.034 4.239,-8.156 13.165,-18.527 26.783,-31.117 l 12.33,-11.176 c 7.322,-6.678 12.684,-12.973 16.09,-18.882 3.4,-5.907 5.105,-11.817 5.105,-17.727 0,-8.99 -3.084,-16.022 -9.248,-21.098 -6.166,-5.073 -14.773,-7.611 -25.819,-7.611 -10.405,0 -21.646,2.152 -33.719,6.455 -12.075,4.305 -24.663,10.693 -37.765,19.171 l 0,-60.5 c 15.541,-5.395 29.735,-9.375 42.582,-11.946 12.843,-2.568 25.241,-3.854 37.186,-3.854 31.342,0 55.232,6.392 71.678,19.171 16.439,12.783 24.662,31.439 24.662,55.973 0,12.591 -2.506,23.862 -7.516,33.815 -5.008,9.956 -13.553,20.649 -25.625,32.08 l -12.332,10.983 c -8.736,7.966 -14.451,14.354 -17.148,19.171 -2.697,4.817 -4.045,10.115 -4.045,15.896 l 0,8.671 z m -69.557,28.517 69.557,0 0,68.593 -69.557,0 0,-68.593 z"
       id="path5"
       inkscape:connector-curvature="0" /></g><circle
     style="fill:#f44336"
     cx="218.51601"
     cy="218.51601"
     r="218.51601"
     id="circle7" /><g
     id="g9"
     transform="translate(-81.244003,-220.55098)"><rect
       x="267.16199"
       y="307.978"
       transform="matrix(0.7071,-0.7071,0.7071,0.7071,-222.6202,340.6915)"
       style="fill:#ffffff"
       width="65.544998"
       height="262.17999"
       id="rect11" /><rect
       x="266.98801"
       y="308.15302"
       transform="matrix(0.7071,0.7071,-0.7071,0.7071,398.3889,-83.3116)"
       style="fill:#ffffff"
       width="65.543999"
       height="262.17899"
       id="rect13" /></g></svg>