<?xml version="1.0" encoding="UTF-8" standalone="no"?>
<svg xmlns="http://www.w3.org/2000/svg" version="1.1" width="146" height="19" viewBox="0 0 146 19" xml:space="preserve">
    <desc>Created with Fabric.js 2.2.2</desc>
    <line x1="6" y1="9" x2="143" y2="9" style="stroke: rgb(0,0,0); stroke-width: 1; stroke-dasharray: none; stroke-linecap: butt; stroke-linejoin: miter; stroke-miterlimit: 10; fill: rgb(0,0,0); fill-rule: nonzero; opacity: 1;" id="svg_13"/>
    <polygon points="0,-4 4,4 -4,4" transform="rotate(90,62,71)" id="svg_14"/>

    <rect x="120" y="-1" width="1" height="20" transform="rotate(135 120,9)" id="svg_15"/>
    <rect x="105" y="-1" width="1" height="20" transform="rotate(45 105,9)" id="svg_16"/>
    <rect x="91" y="-1" width="1" height="20" transform="rotate(135 91.5,9)" id="svg_17"/>
    <rect x="77" y="-1" width="1" height="20" transform="rotate(45 77.4,9)" id="svg_18"/>
    <rect x="63" y="-1" width="1" height="20" transform="rotate(135 63.4,9)" id="svg_19"/>
    <rect x="49" y="-1" width="1" height="20" transform="rotate(45 49.4,9)" id="svg_20"/>
    <rect x="35" y="-1" width="1" height="20" transform="rotate(135 35.4,9)" id="svg_21"/>
    <rect x="21" y="-1" width="1" height="20" transform="rotate(45 21.4,9)" id="svg_22"/>

    <circle id="a" cx="6" cy="9" r="4" style="stroke: rgb(0,0,0); stroke-width: 1; stroke-dasharray: none; stroke-linecap: butt; stroke-linejoin: miter; stroke-miterlimit: 10; fill: rgb(255,255,255); fill-rule: nonzero; opacity: 1;"/>
    <circle id="b" cx="141" cy="9" r="4" style="stroke: rgb(0,0,0); stroke-width: 1; stroke-dasharray: none; stroke-linecap: butt; stroke-linejoin: miter; stroke-miterlimit: 10; fill: rgb(255,255,255); fill-rule: nonzero; opacity: 1;"/>
</svg>