<?xml version="1.0" encoding="UTF-8" standalone="no"?>
<!-- Generator: Adobe Illustrator 18.0.0, SVG Export Plug-In . SVG Version: 6.00 Build 0)  -->

<svg
   xmlns:dc="http://purl.org/dc/elements/1.1/"
   xmlns:cc="http://creativecommons.org/ns#"
   xmlns:rdf="http://www.w3.org/1999/02/22-rdf-syntax-ns#"
   xmlns:svg="http://www.w3.org/2000/svg"
   xmlns="http://www.w3.org/2000/svg"
   xmlns:sodipodi="http://sodipodi.sourceforge.net/DTD/sodipodi-0.dtd"
   xmlns:inkscape="http://www.inkscape.org/namespaces/inkscape"
   version="1.1"
   id="Capa_1"
   x="0px"
   y="0px"
   width="365.36801"
   height="365.36801"
   viewBox="0 0 365.368 365.368"
   xml:space="preserve"
   sodipodi:docname="split.svg"
   inkscape:version="0.92.3 (2405546, 2018-03-11)"><metadata
   id="metadata43"><rdf:RDF><cc:Work
       rdf:about=""><dc:format>image/svg+xml</dc:format><dc:type
         rdf:resource="http://purl.org/dc/dcmitype/StillImage" /><dc:title></dc:title></cc:Work></rdf:RDF></metadata><defs
   id="defs41" /><sodipodi:namedview
   pagecolor="#ffffff"
   bordercolor="#666666"
   borderopacity="1"
   objecttolerance="10"
   gridtolerance="10"
   guidetolerance="10"
   inkscape:pageopacity="0"
   inkscape:pageshadow="2"
   inkscape:window-width="1533"
   inkscape:window-height="845"
   id="namedview39"
   showgrid="false"
   inkscape:zoom="0.64592409"
   inkscape:cx="-53.411845"
   inkscape:cy="182.68401"
   inkscape:window-x="67"
   inkscape:window-y="27"
   inkscape:window-maximized="1"
   inkscape:current-layer="layer2"
   inkscape:pagecheckerboard="true" />

<g
   id="g8">
</g>
<g
   id="g10">
</g>
<g
   id="g12">
</g>
<g
   id="g14">
</g>
<g
   id="g16">
</g>
<g
   id="g18">
</g>
<g
   id="g20">
</g>
<g
   id="g22">
</g>
<g
   id="g24">
</g>
<g
   id="g26">
</g>
<g
   id="g28">
</g>
<g
   id="g30">
</g>
<g
   id="g32">
</g>
<g
   id="g34">
</g>
<g
   id="g36">
</g>
<g
   inkscape:groupmode="layer"
   id="layer2"
   inkscape:label="Layer 2"><circle
     style="fill:#ffffff;stroke:#999999;stroke-width:1.15409625;stroke-opacity:1"
     id="path4537"
     cx="182.68401"
     cy="182.68402"
     r="182.10695" /></g><g
   inkscape:groupmode="layer"
   id="layer1"
   inkscape:label="Layer 1"><g
     id="g6">
	<path
   style="fill:#231f20"
   d="M 363.171,177.381 311.1,125.309 c -1.406,-1.407 -3.314,-2.197 -5.303,-2.197 -1.989,0 -3.897,0.79 -5.303,2.197 l -14.143,14.143 c -1.407,1.406 -2.197,3.314 -2.197,5.303 0,1.989 0.79,3.897 2.197,5.303 l 15.126,15.125 h -52.543 v -95.5 c 0,-4.142 -3.358,-7.5 -7.5,-7.5 h -20 c -4.142,0 -7.5,3.358 -7.5,7.5 v 226 c 0,4.142 3.358,7.5 7.5,7.5 h 20 c 4.142,0 7.5,-3.358 7.5,-7.5 v -95.5 h 52.543 l -15.126,15.126 c -1.407,1.406 -2.197,3.314 -2.197,5.303 0,1.989 0.79,3.897 2.197,5.303 l 14.143,14.143 c 1.406,1.407 3.314,2.197 5.303,2.197 1.989,0 3.897,-0.79 5.303,-2.197 l 52.071,-52.071 c 2.929,-2.929 2.929,-7.678 0,-10.606 z"
   id="path2"
   inkscape:connector-curvature="0" />
	<path
   style="fill:#231f20"
   d="m 143.934,62.184 h -20 c -4.142,0 -7.5,3.358 -7.5,7.5 v 95.5 H 63.891 l 15.126,-15.125 c 2.929,-2.929 2.929,-7.677 0,-10.606 L 64.875,125.31 c -1.407,-1.406 -3.315,-2.197 -5.304,-2.197 -1.989,0 -3.897,0.79 -5.303,2.197 L 2.197,177.381 C 0.79,178.787 0,180.695 0,182.684 c 0,1.989 0.79,3.897 2.197,5.303 l 52.072,52.071 c 1.407,1.407 3.314,2.197 5.303,2.197 1.989,0 3.897,-0.79 5.304,-2.197 l 14.142,-14.143 c 2.929,-2.929 2.928,-7.678 0,-10.606 L 63.892,200.183 h 52.543 v 95.5 c 0,4.142 3.358,7.5 7.5,7.5 h 20 c 4.142,0 7.5,-3.358 7.5,-7.5 v -226 c -0.001,-4.141 -3.359,-7.499 -7.501,-7.499 z"
   id="path4"
   inkscape:connector-curvature="0" />
</g></g></svg>